<?xml version='1.0' encoding='utf-8'?>
<svg xmlns="http://www.w3.org/2000/svg" viewBox="0 0 854 1e3"> <g fill-rule="evenodd"> <path d="m494 374h12v1h1v1h-2v1h-1v1h15v1h-1v1h-12q-11 0-34 2l-24 2h1v1h1v1h-6q-6 0-36 1l-29 1t-7-1h-8v2h-16q-15 1-94 4t-98 5q-19 0-20 1 0 1-2 15l-2 13-1-5q-1-6-1-20v-15h2v1q0 1 1 1l1-1 1 1q1 1 1-1 1-2 2-2 2-1 3 1 1 1 50-1 49-4 59-4 10-2 34-2 25 0 26-1h2l73-2q73-1 85-2 13-1 24-1z" fill="#c1bfc0" stroke="#c1bfc0"/> <path d="m450 86h4v1h1v-1h1v1h1v1h-6l3 1q3 1 8 1h6l-2 2h-7l-1 1q-1 1-23 1h-76v-1h-1v-1h3v-2h-2v-1l18-1q18 0 18-1t12-1q13 1 12 2 0 1 13 1 14-1 15-1t0-1 3-1z" fill="#dcd9d9" stroke="#dcd9d9"/> <path d="m474 145h54v1h36q36 2 42 2h5l-1 1q-1 0-1 1t-2 1l-2 1h-30q-30 0-69 0-38 0-46-1-7-1-7-2t-13-1h-14l12-2q12 0 36-1z" fill="#e7e4e2" stroke="#e7e4e2"/> <path d="m458 93 1-1h106v1h1v1h-10q-11 0-16 1-6 1-7 2t-13 2l-13 1h-97v-1h-1v-1h2v-1h1v-1h-7l4-1q4-1 4-1h22q22 0 23-1z" fill="#dfdbda" stroke="#dfdbda"/> <path d="m656 561h6v1h1l3 1h3v2h5q0 1-34 3l-34 2t-2-1l-3-1h1l-4-2h-4l6-1 7-1 21-1q21-1 28-2z" fill="#9c9a9a" stroke="#9c9a9a"/> <path d="m618 268h5q1 1 1 2-1 0-4 1l-2 1h-4q-3 0-3-1l2-1q2-2 5-2z" fill="#d4d1cf" stroke="#d4d1cf"/> <path d="m176 941h3l-7 2q-6 1-8 2-2 0-3 5-1 4-5 6t-8 2q-5 0-8-1h-2v-1l-1-6v-6h2v1h1v1l2-1q3-1 8-1t14-2q10 0 12-1z" fill="#323232" stroke="#323232"/> <path d="m654 465h2l18 1q18 0 20 0 3 0 4 2 0 1 0 12 0 10-1 28v18q-1 0-3 6-2 7-4 9-2 1-8 1t-32 2-36 2q-11 1-11 2-1 1 0 3t-3 3l-4 1v3h1v1h1v-1 4h-1v1h-1q0-1-16-1-17 0-19 0-2-2-13 0-10 2-50 5l-39 3h-7q-6 0-8-1-1-1 0-2 0-2-1-2-1-1-3-6l-3-6v-32h1v-2h1v-1h1v-4l2-11q2-11 3-16 2-5 13-7t14-2q4 0 11 0h25q19 0 23-2 4 0 35-2 30-2 49-4t29-3q9-1 10-2z" fill="#080809" stroke="#080809"/> <path d="m508 140h8v2h4l-2 1-1 1h-20v1h-23q-24 1-36 1l-12 2h-76q-75 0-75-1t-1-1h-2v-1h-1q0-1-1-1-2-1-2-2v-1l1-1q1-2 3 0 3 2 26 1t113-1 97 0z" fill="#e9e6e5" stroke="#e9e6e5"/> <path d="m209 246h6l1 1h2v2h1l1-1h4q3 0 3 1t-1 1 0 1q1 0 1 1v1h-7q-8 0-9-2-1-3-1 0-1 2-6 3h-9q-1 0-5 3l-4 3v1h-1v1h-3t-2 0l-1 1h-2v-1h-1v-1h-2l-1-1h-1v-3l-1-3v-3h3l2-1 14-2q13-2 19-2z" fill="#313130" stroke="#313130"/> <path d="m714 489 2-30 2 1q2 0 0 50-2 49-2 50t-1 1h-1q-1 1-4 0-4 0-4-3l1-2q1 0 0 0v-2q1-2 1-13l1-11h1v2l1-6q1-7 3-37z" fill="#5b5a5b" stroke="#5b5a5b"/> <path d="m582 273h1l1 1q0 1 1 2 0 0 3 1h3q0 1-10 1h-10v-1h-1v-1h4q5 0 6-1 0-1 2-2z" fill="#dcd8d6" stroke="#dcd8d6"/> <path d="m471 713h3v1h3l8 2q8 0 8 1t-57 4l-58 4q1-1 0-2l-1-1h5v-1h1v1h1l42-4q42-4 45-5z" fill="#9e9d9d" stroke="#9e9d9d"/> <path d="m243 243q-1 0-1 1t-1 1l-1 1v1q1 1 4 2 4 1 9 1h5v1h1v1h-13l-1-1h-1v2l-1 1h-3t-2-1q-3-1-5 1l-2 1v-1q0-1-2-1h-2v-1q0-1-1-1t-1-1q0-2-3-2h-2l-1 1h-1v-2h-2l-1-1v-1h1v1h11q11 0 12-2t3-2q1 0 1 1z" fill="#979492" stroke="#979492"/> <path d="m312 281 1 1q1 2 3 2h2t-2 1l-2 1h-2q-3 0-7 1h-4v-1l4-1q3-1 4-2 0-1 1-1t2-1z" fill="#bab7b5" stroke="#bab7b5"/> <path d="m437 559v-6l3 6q2 5 3 6 1 0 1 2-1 1 0 2 2 1 8 1h7v1h-3l-3 1h-15v-2q0-2 1-4 1-1-1-1h-1v-6z" fill="#333" stroke="#333"/> <path d="m692 460h19l-1 25q0 25-1 33v7q-1 0-1-7-1-7-3-7-1 0-3 6t-2 5l-1 2q0 1-1 1h-1v-17q1-18 1-28 0-11 0-12-1-2-4-2-2 0-20 0l-18-1v-1h-6l-2-1h-1v-1h17q18-2 28-2z" fill="#2c2c2d" stroke="#2c2c2d"/> <path d="m791 369v-1q1-1 1-6 0-4-1-3-2 1-143 8l-142 7h-12q-11 0-24 1-12 1-85 2l-73 2v-1h-2l4-2h4l-4-2h-1q-1 0 1-1l2-1-2-1q-2-1-4-1-3 0 0-1 2-1 0-1-3-1-3-3-1-2 0-3 1 0-1-4t-4-10q0-7-1-6-1 2-2 0t-3-3q-3-1-5-5t-3-4-2-3q0-3-10-4l-10-1h-3v-2h3q3 0 6-1l3-1h-4v-2h-4q-4 0-7-1l-2-1h-5v-1h-1v-1h2l120-5q121-5 129-5h8l144-4q143-5 145-2 0 4-2 38-2 35-4 36-2 0-2 0-1 0-1-1zm-58-39v-7h10v7q-1 7-5 8h-5v-8zm-255 22h-3v1h-1v-2h-1v-1h1v-1h1v-1h1v1l2-1q2 0 4-1 3-1 5-8 1-8 3-9 1 0 2-1 2 0 2-1-1-2 2 0t5 7q3 5 1 10t-4 7q-3 2-5 4t-7 2q-4 0-5-1t-1-3q0-1 0-1 0-1-2-1zm-143 12h-6l2-1q3-1 3-2v-1h-3q-3 0-8 0h-7v-1h1v-1h5l2-1q2-1 2-2t1-2 0-8 1-7q3-1 2-3l-2-2q0-1 3-1t3-1q-1-1 2 0 4 1 6 5 2 3 2 10 0 6-2 11-3 5-4 5-2 2-3 2z" fill="#eae8e8" stroke="#eae8e8"/> <path d="m510 256-3-1h13l3 1h9v2l-1 2-1 1v3h1l1 1 2 1h3v1q0 1-4 1h-4v-1q-1 0-1-3-1-3-2-3-1-1-2-2 0-1-6-1t-8-2z" fill="#dfdddb" stroke="#dfdddb"/> <path d="m536 241 2-1h4t1 1v1h1q1 0 1-1t11 0q12 1 12 0h2v1l2 1q2 1 3 1h1l2 2q2 1 2 2t-1 2v1h-1q0 1-2 1h-4 1l-2 1h-2v-1q-1 0-3-2-2-3-17-4l-15-1h-2l1-1q1-2 2-2v-1h1z" fill="#424241" stroke="#424241"/> <path d="m607 239h-7l-6 1h-1q-1 0-3 2-1 0 0 1l2 1h2l2 2 4 2q3 1 3 2v1h-1q-1-1-11-3t-8-3q2 0 2-1v-1h-1l-2-1h-12v-1h-3v-4h1l2-1h2l12-3q13-3 14 1t5 4 4 1z" fill="#4b4a48" stroke="#4b4a48"/> <path d="m632 262h6v1l1 1v1h-3q-2-1-4-1-1 0-1 2 0 1-1 1-1-1-10-1h-14q-5 0-10 1h-6v-1h-1l-2-2h15q14 0 15-2t1-3v-1h2q3-1 2 0 0 2 3 2 3 1 3 0t2-1q1 0 1 1 0 2 1 2z" fill="#5c5a58" stroke="#5c5a58"/> <path d="m335 364h-6l2-1q3-1 3-2v-1h-3q-3 0-8 0h-7v-1h1v-1h5l2-1q2-1 2-2t1-2 0-8 1-7q3-1 2-3l-2-2q0-1 3-1t3-1q-1-1 2 0 4 1 6 5 2 3 2 10 0 6-2 11-3 5-4 5-2 2-3 2z" fill="#dedcdc" stroke="#dedcdc"/> <path d="m182 262v2h5l7 1h7v1h7q8 1 7 2 0 2 1 1h1q0 1-7 2-6 1-6 4t-3 3l-3 1v3h-1v1h1v1h1v1h-1q-2-1-2-1-1 0-2-1-2-1-3-4t-7-4l-6-1v-3l1-1q1-2 1-4v-2h-1v-1l1-1q2 0 2 0z" fill="#494848" stroke="#494848"/> <path d="m364 388v-1h8q7 1 7 1l-3 2q-4 3-4 44t0 52v15q0 5-1 6v1h-2v6h-2l-1 1v-46q0-46 0-61 0-16-1-18l-1-1v-1z" fill="#636162" stroke="#636162"/> <path d="m272 274v-1q1 1 8 1h7l-3 1h-4v7q0 4 0 4h1q1 0 2 1t-2 1-5 0l-2 1q0-1-1-1t-1-2v-2q0-2 0-2v-2q0-2-1-2l-1-1q1-1 1-1 1-1 1-2z" fill="#5e5c5a" stroke="#5e5c5a"/> <path d="m165 259h1q2 0 2 1v2h7v-1h1v1h1v1h-5q-6 1-8-1l-3-1 2-1q2 0 2-1z" fill="#bbb8b7" stroke="#bbb8b7"/> <path d="m270 276h1v1q1 1 1 3v2t0 2v1q-1-1-2 0h-2q0-1-1-1h-1q0-1-1-2 0-2 1-2 2 0 2-2v-1q1-1 2-1z" fill="#837f7d" stroke="#837f7d"/> <path d="m590 270h12q9 0 9 1t3 1h4t-2 2q-1 2 0 2t0 1h-8q-6-1-7-1t-1-1-2-1h-2q-1 0-4-2t-2-2z" fill="#b2aead" stroke="#b2aead"/> <path d="m638 463h10l2 1h6v1h-2q-1 1-10 2-10 1-29 3t-49 4q-31 2-35 2-4 2-23 2h-18l-2-1-1-1h-2l2-2h-3v-2h1l72-4q72-4 81-5z" fill="#282829" stroke="#282829"/> <path d="m591 270h-1q-1 0 2 2t4 2v1q0 1-3 1l-2 1h-3q-3-1-3-1-1-1-1-2l-1-1 1-2q1-1 4-1t3 0z" fill="#a5a19e" stroke="#a5a19e"/> <path d="m115 82h13q1 0 2 1 0 1 0 1h-3l-4 1h-13q-9-1-8-1 2 0 2-1l-1-1t12 0z" fill="#e5e1e0" stroke="#e5e1e0"/> <path d="m312 268h2t-6 0q-5 0-11 2-6 0-5 1 2 1 2 2l1 1h-1q-1 0-11-2-10 0-13-2-2 0-1-1 1 0 1-1t-8 0h-8l-2-2h1v-1h3l2 1h7q5 0 11-2 7-2 7-2h5l10-2q11-1 12 4 1 4 2 4z" fill="#444341" stroke="#444341"/> <path d="m263 284v2h-5q-1 0 1-3 1-3 3-2 0 1 1 3z" fill="#d0cdcb" stroke="#d0cdcb"/> <path d="m505 247h2v6h3q4 1 5 1h1v1h-11q-2 0-2-1-1-1-4-2l-4-1v-1l5-1q5-1 5-2z" fill="#c1bfbc" stroke="#c1bfbc"/> <path d="m767 740v-5q1 0 1 3v2l-2 74q-2 73-3 74l-1 1v-1h-2q-1 0-2-2-1 0-4-1h-4v-1q0-1 1-1t1-3q0-2 1-18t4-18q3-1 4-6v-9q1-5 3-45l2-40 1-4z" fill="#8f8e8f" stroke="#8f8e8f"/> <path d="m770 647 2-41h1v1l-2 67q-3 66-3 66v-2q0-3-1-3v-3q1-3 1-18 0-16-3-17l-2-1t-2-1l-2-1h-1v-1h-1v-1h1v-1h2q2-1 5-2t5-42z" fill="#696868" stroke="#696868"/> <path d="m480 244v-1h1v1h2v1h1v-1l4 1q4 0 4 1 0 2 1 3v1h2v1h-1q-2-1-6-2l-3-2v-1h-2q-2 0-3-2z" fill="#b9b6b4" stroke="#b9b6b4"/> <path d="m779 372h1v16q0 16 0 22v6h1l-2 44q-1 45-2 56v12l-2 40q-1 39-2 39v-1h-1l-2 41q-2 41-5 42t-5 2h-10q-9 1-42 3l-33 2v1h-6q-6 1-23 2l-18 1v1h-6q-6 1-36 3l-31 2-1 1h-6q-5 1-36 3l-31 2-3 1h-7q-3 1-45 5l-42 4h-1v-1h-1v1h-5q-1-1-1-1v-1t-2-26l-2-25v-7q0-8 0-14v-12q0-5 0-18t0-68v-64q0-11 0-52t4-44l3-2 29-1q30-1 36-1h6l53-2q53-2 53-3l55-2q55-3 61-3h5l37-2q36-2 38-2h14q12 0 13 0zm-148 40h7-6q-6 0-22 2-16 0-74 2l-58 2 73-3q73-3 80-3zm71 48 7-1h7l2 1q2 0 0 50-2 49-2 50t-1 1v1q-1 0-21 2l-20 1q0 1-34 3l-34 2h-2q-1 0-46 3l-46 3-7 1q-7 1-37 2l-31 1v-2l-1-1v-5q0-5 1-5v-67q1-21 1-23 1-2 24-3l22-2h1l72-4q72-4 81-5h9v-1h17q18-2 28-2h10z" fill="#eae8e9" stroke="#eae8e9"/> <path d="m354 89h5v1h2q2 0 2 1t-3 1h-2v1h1v1h54t-4 1l-4 1h7v1h-1v1h-2v1h1v1h-64q-63 0-63-1 1 0-1-1-2 0-1-1t-3-1h-3l-1-1h-2v-2h1v-1h1v-3h1l1-1h-3 31q31 0 38 0 8 0 12 1z" fill="#e6e2e2" stroke="#e6e2e2"/> <path d="m566 237h1v4h3v1h7v1q-1 1-1 1h-1q-1 0-5-2-5 0-15-1t-10 0-1 1h-1v-1q-1-1-1-1v-1q0-1 0-3v-2h-1t-3-2l-2-2h3q3 0 5 1 1 1 2 3 0 2 10 3t10 0z" fill="#c5c3c1" stroke="#c5c3c1"/> <path d="m775 568 2-40 1 2q0 2 1 13t1 46-1 77-1 52q0 9 0 10-1 2 0 2t-2 78q-2 77-3 80l-1 3v1h-9v-1h-1v-1h-1v-1h-1v-1h2v1l1-1q1-1 3-74l2-74t3-66l2-67q1 0 2-39z" fill="#d4d3d4" stroke="#d4d3d4"/> <path d="m371 690 1-21 2 25q1 26 2 26t1 1v1h-1q-1 0-2-1 0-1-3-6l-3-5v-1l1 1h1v1t1-21z" fill="#c8c6c7" stroke="#c8c6c7"/> <path d="m0 500v-500h854v1e3h-854v-500zm653-363v5q1 5 1 7v2h-31q0 1 4 1h4v1h-1v2h3l3 1h-2l-38 1q-38 1-72 1h-35l13 2q13 0 23 0h10v1h1v1h-2l-6 2h2v1q0 1-2 1-2-1-2 0 0 2-2 2t-2-1-2-1-2 1-4 1q-3 0-4 0-2 0-8 2-5 2-36 2-30 2-38 1-9-1-16-2t-7-3q1-2 2-3l1-1h-60q-59 0-63 1l-4 1h1q2 2 1 2t0 1l1 1h-2l-2 1q-3 1-24 2l-20 1h-4q-5 0-6 0-2 0-13 2-11 0-75 2-63 2-72 3-10 1-10 7l-1 6v18l1 8q2 8 11 16t9 8h1q1 0 1 0v1t1 1q1 0 1 0v1t1 1q1 0 1 0v1l9 6q9 6 9 6v1h1l2 2h6v-1l-1-1v-1h-1q0-1-1-1 0-1 0-5v-5l4-1q3-1 12-1 10 0 17 2 7 0 8 2 1 1 2 1v1h1l2 1h3v-1h-4v-5q1-2 1-5l2-3v-1h5q3 0 15 2 12 0 12 0 1 0 8 1h8q2 0 2-5l1-4h3v1h1v1l4 3q3 3 3 4t0 1v2h11q11 0 12-2t3-2q1 0 1 1l17-3q16-2 17-2t2 4 1 4v1l6 1q6 0 8 4 2 3 2 4v1l1-2q1-1 12-3t41-4q31-2 74-2 44 0 48 1 5 1 9 0h4v-1h-2q-2 0-3-2v-2l1-1q1-1 1-4v-3h1v-1h1v-1l16 2q16 0 19 1h3l1-1q1 0 2-3t5-3q4 2 5 2h4q3 0 5 1 1 1 2 3 0 2 10 3t10 0h2l2-1h2l12-3q13-3 14 1t5 4 4 1l7 1q8 0 9 4t2 4v2q-1 0-1 0v2q1 2 2 2h1l13-2q12-2 13 2t4 4h22l2 2h1v2l2 4v4h-2l-4 1q-5 1-8 2l-4 1t-8 2l-8 1h-14q-1 1-11 1h-10v-1h-7q-6-1-7-1t-1-1-2-1h-2v1q0 1-3 1l-2 1q0 1-10 1h-10v-1h-1v-1h-2v1h1v1h1v2h-3l1 1 2 1h8l2 1 3 1h-6q-6 0-13 0t-9 0q-2 2-19 2h-16l-2 2h-3l5 1 4 1h-4q-5 0-8 1-3 0-3 1 0 2-1 2h-1l-4 2h1l-2 2h-1l1 1 2 1h8v1h-1v1l144-4q143-5 145-2 0 4-2 38-2 35-4 36-2 0-2 0-1 0-1-1l-1 1q-2 0-4 6-2 5-2 17-2 12-2 14t-1 5v4l-2 44q-1 45-2 56v12l1 2q0 2 1 13t1 46-1 77-1 52q0 9 0 10-1 2 0 2t-2 78q-2 77-3 80l-1 3v1h-9v-1h-1v-1h-1v-1h-1v-1q-1 0-2-1 0-1-4-2l-3-1t-1 1v1q0 2-1 2 0 0-1 2-2 0-10 1t-12-1l-3-2-5-1h-6q-3-1-72 6l-69 7-5 1q-6 1-96 10l-91 9-3 1h-6q-2 1-38 4l-37 3-5 1q-6 1-58 6l-53 6-7 2q-6 1-8 2-2 0-3 5-1 4-5 6t-8 2q-5 0-8-1h-3v1h-6l-1 1h-2v-2h-1v1h-1v-1l-1-1v-2h-1t0-1v-2l-2-2v-2l-1-1q-1-2-27-72-28-70-30-203-4-133-8-296l-5-163v-2q-1-3-1-62-2-60 0-62l1-2q1-1 1-1v-1q1-2 6-2 6 0 22 1t20 1h3t12 0h13q1 0 2 1 0 1 0 1l4-1q4-1 19-2t16 0 5 2q3 1 7 1h4v-1h1v1h2l-6 2h2v1l1 1 35 1q35 1 39 4 5 3 6 6t2 6q0 3-1 3t0 16q0 16 1 16 0 0 1 1l1-1q1-2 3 0 3 2 26 1t113-1 97 0h11l17-1q18-1 20-1h3l3-1 4-1h-4q-3 0-6-1l-4-1h9l-3-1q-2-1 0-1h1l4-2h-25v-1h-10v-9l-1-1v-10q0-1 1-1 0 0-2-1-3-1-3-1 0-2-3-2-4-1-4-2v-1h-4l-5-1h-161q-63 0-63-1 1 0-1-1-2 0-1-1t-3-1h-3l-1-1h-2v-2h1v-1h1v-3h1l1-1h-3 31q31 0 38 0 8 0 12 1h5l18-1q18 0 18-1t12-1q13 1 12 2 0 1 13 1 14-1 15-1t0-1 3-1h4v1h1v-1h1v1h1v1h-6l3 1q3 1 8 1h6l-2 2h29v-1h1v-2h-6v-2l73-1q73-2 76-3t5-3 8-2q5 0 5 1t-1 1q-2 0-2 3t1 2 1 12-1 13q-1-1-1 12-2 13-2 14 0 0 1 1z" fill="#fbfafa" stroke="#fbfafa"/> <path d="m709 525v5l-1 11q0 11-1 13v2h-1q-1 0-22 2l-20 2-1 1h-7q-7 1-28 2l-21 1h-8l-1-1h-1v-1h1v-4 1h-1v-1h-1v-3l4-1q4-1 3-3t0-3q0-1 11-2 10 0 36-2t32-2 8-1q2-2 4-9 2-6 3-6v-1h1q1 0 1-1l1-2q0 1 2-5t3-6q2 0 3 7 0 7 1 7z" fill="#27272a" stroke="#27272a"/> <path d="m528 241h7v1q-1 0-2 2l-1 1q-1 1-1 1h-1q-1 0-5 4l-4 2v1q-1 0-3 1h-3q-1 0-5-1h-3v-6h-3v-1h-1l3-1 2-1 7-1q7-1 13-2z" fill="#3e3d3b" stroke="#3e3d3b"/> <path d="m535 230h1l2 2q3 2 3 2h1v2q0 2 0 3v1h-1v-2q0-1-9-2h-10v-1l1-1q1 0 2-3t5-3q4 2 5 2z" fill="#737270" stroke="#737270"/> <path d="m232 284h2q1 0 1 1t-2 1h-2v1h-1v1h10t-2 1l-3 1h-4q-4 0-12-2h-8v-1h1l1-1h12q5-2 7-2z" fill="#c7c3bf" stroke="#c7c3bf"/> <path d="m280 246v1h-16q-15-1-20-1h-4l1-1q1 0 1-1t1-1l17-3q16-2 17-2t2 4 1 4z" fill="#504f4e" stroke="#504f4e"/> <path d="m631 412h7-6q-6 0-22 2-16 0-74 2l-58 2 73-3q73-3 80-3z" fill="#cfcecf" stroke="#cfcecf"/> <path d="m528 114v-4l1 4q1 3 1 6v4l1-1q1-1 1-1 1-1 4-1t3 2 1 2q2-1 2-1h1v2q0 2 19 2h19l-21 1h-32v-9l-1-1v-1h1v-4z" fill="#6c6867" stroke="#6c6867"/> <path d="m603 858h1l-1 1q-1 1-3 2-1 0-2 3-2 4-4 4-2 1-3 0 0-1-1-1t-2 1q0 2-2 2-3 0-2 1 1 0 1 1t-2 0q-2 0-1 1 0 1-1 1t-2 1-3 2q-3 1-6 3-2 4-4 4-1 0-1 1t-1 1-1 1q-1 1-1 2v1h-1v1h-1v3l1 2 1 1v1h1v1h1v1h7l-5 1q-6 1-96 10l-91 9-3 1h-3v-1h1v-1h1v-1h1v-1h1v-1h3l2-1q1-1 6-2 4-2 5-3 1-2 0-3t0-7q1-7 2-7t1-1-3-3q-2-2-2-3 0-2-1-2-2 0-2-1t-6-1h-6v-1h1l1-1 112-10q112-12 113-12z" fill="#1c1c1d" stroke="#1c1c1d"/> <path d="m192 314 60-2v1h1v1h5l2 1q3 1 7 1h4v2h4l-3 1q-3 1-6 1h-3v2h3l10 1q10 1 10 4 1 3 2 3t3 4 5 5q2 1 3 3t2 0q1-1 1 6 2 6 4 10t1 4q-1 1 0 3 0 2 3 3 2 0 0 1-3 1 0 1 2 0 4 1l2 1-2 1q-2 1-1 1h1l4 2h-4l-4 2h2v1h-2q-1 1-26 1-24 0-34 2-10 0-59 4-49 2-50 1-1-2-3-1-1 0-2 2 0 2-1 1l-1-1h-3l-1-1v-19q0-18 0-34t0-17q2-1 62-3z" fill="#efeded" stroke="#efeded"/> <path d="m555 381h1q0 1-53 3l-53 2v-1h-1v-1h-1l24-2q23-2 34-2h31q19 0 18 0t0 1z" fill="#8a8889" stroke="#8a8889"/> <path d="m657 258h3t-4 0-13 2h-9v1h-1v1h-1q-1 0-1-2 0-1-1-1-2 0-2 1t-3 0q-3 0-3-2 1-1-2 0h-2q-1 0-8 0h-8 2v-2h-1 4l1-1h4l3 1h1l6-1q5-1 5-1l13-2q12-2 13 2t4 4z" fill="#4d4b4a" stroke="#4d4b4a"/> <path d="m577 243v-1h5l2 1h1v1q0 1-2 1-2 1 6 3t11 2h2t0 1h1l2 1q2 2 3 1h1v1q-1 1-1 1l-1 1h-4 1v2h-5q-3 0-5 0-3 1-3 2t-1 1-2 1v2h-2t0-2q1-1-4-2h-6v-1l1-1q1-1 1-4l1-3v-1q1-1 1-2t-2-2l-2-2t1-1z" fill="#7d7b79" stroke="#7d7b79"/> <path d="m279 439h-6q0-1-3-1l-2-1h4l3-1h27q27 0 5 2-22 0-28 1z" fill="#d6d4d5" stroke="#d6d4d5"/> <path d="m481 247h4l3 2q4 1 6 2h1l4 1q3 1 4 2 0 1 2 1h2l3 1q2 2 8 2t6 1q1 1 2 2 1 0 2 3 0 3 1 3v1h4q4 0 4-1v-1h2q3 0 4 2t5 3q5 0 5 1 0 2 3 2 4 0 5 0h1l4 2h2v1h1v1h1v2h-3l1 1 2 1h8l2 1 3 1h-6q-6 0-13 0t-9 0q-2 2-19 2h-16l-2 2h-3l5 1 4 1h-4q-5 0-8 1-3 0-3 1 0 2-1 2h-1l-4 2h1l-2 2h-1l1 1 2 1h8v1h-1v1h-8q-8 0-113 4-105 3-105 4t-1 1q-1-1-16 0l-14 1h-2l-60 2q-60 2-62 3 0 1 0 17t0 34v19q0 1 0 1h1v14q-1 14 0 20l1 5 2 175q2 174 2 190v59q0 44 1 69v30l1 6v1h-1v1h-6l-1 1h-2v-2h-1v1h-1v-1l-2-2v-2h1q1 0 0-88t-3-157q0-69-4-242l-3-172v-6q-1-6-1-11t-3-8l-4-3q-1-1-1-1 0-1 2-1h1v-1l-1-1v-1h-1q0-1-1-1 0-1 0-5v-5l4-1q3-1 12-1 10 0 17 2 7 0 8 2 1 1 2 1v1h1l2 1h3l3 3q3 2 3 3l3 1q2 2 8 1h7v1h1v2q0 2-1 4l-1 1v3l6 1q6 1 7 4t3 4q1 1 2 1 0 0 2 1h3l2-1h1l2 1q1 1 2 1h1t1 1h1v1h8q8 2 12 2h4l3-1q2-1 2-1h6q6 0 6 1h4q2 1 9 1h7l10-1q11-1 14-1 2 0 2-1h7q4-1 7-1h2l2-1q2-1 2-1l5-2q5-2 7-1 1 1 3 0h2v-3l-1-2v-4l-2-2v-1h-1v-1h-19q-1 0-2-4-1-5-12-4l-10 2h-5v-1h1v-1h1l2-2h5q4 0 4-1l1-2q1-1 12-3t41-4q31-2 74-2 44 0 48 1 5 1 9 0z" fill="#ecebeb" stroke="#ecebeb"/> <path d="m761 836v-2 4q-1 5-4 6-3 2-4 18t-1 18q0 3-1 4-1 0-1 0v2q0 2-1 2v-2q0-3-2-2-2 0-5 0-4 0-4 0 1 0-1-1t-3 1q0 1-6 1l-5-1-6 2h-3v1h-2q-3-1-72 6l-69 7h-7v-1h-1v-1h-1v-1l-1-1-1-2v-3h1v-1h1v-1q0-1 1-2 0-1 1-1t1-1 1-1q2 0 4-4 3-2 6-3 2-1 3-2t2-1 1-1q-1-1 1-1 2 1 2 0t-1-1q-1-1 2-1 2 0 2-2 1-1 2-1t1 1q1 1 1 0 1-2 2-2t1 1q1 1 2-3 2-3 3-3 2-1 3-2l1-1 54-5q53-5 53-4t3 0q2-1 24-4 21-2 22-4 0-2 1-5z" fill="#151516" stroke="#151516"/> <path d="m264 437h4l2 1q3 0 3 1h-3q-3 1-17 1-14 2-39 2h-24 2l2-1 1-1 33-1q33-1 36-2z" fill="#d8d6d7" stroke="#d8d6d7"/> <path d="m228 277h1v1h-1q-2 1-2 2 0 2 3 2h3q0 1 1 2h-1q-2 0-7 2h-12l-1 1h-2q-1-1-1-1h3l4-4q3-2 6-4 4 0 6-1z" fill="#908a85" stroke="#908a85"/> <path d="m230 266h3l-1 2q-1 0 1 1 3 1 3 2t-1 2v1l3-2q2-1 4-2 0-1 1 0v2q0 2 1 2h6v1h-1l-1 1h-4l-8 1h-8q-2 1-6 1-3 2-6 4l-4 4h-4q-1 0-2-1l-2-1h-1l-2 1h-2v-1h-1v-1h-1v-1h1v-3l3-1q3 0 3-3t6-4q7-1 7-2h9q2 0 2-1 0-2 2-2z" fill="#323130" stroke="#323130"/> <path d="m534 245 15 1q15 1 17 4 2 2 3 2v2q0 1-15 0l-16-1q0-1-2-1-3 0-3-2 0-1-1-1-2 0-2-1l1-2h1q2 0 2-1z" fill="#cac7c5" stroke="#cac7c5"/> <path d="m56 375-5-163 1 3q2 3 2 2t1-3v-2l1 8q2 8 11 16t9 8h1t1 1q0 1 0 1h1t1 1q0 1 0 1h1t1 1v1t1 0l1 3q2 2 9 9 7 6 8 7 0 1 1 1t1 2q0 1 1 2 2 0 2 1t1 1 3 4q1 4 1 4 1 0 1 2v1l1 1 1 2v4h1l3 172q4 173 4 242 2 69 2 140 2 72 2 89v17h-1l-1-1v-2l-2-2v-2l-1-1q-1-2-27-72-28-70-30-203-4-133-8-296z" fill="#9b999a" stroke="#9b999a"/> <path d="m462 474 22-2v2h3l-2 2h2l1 1 2 1h-7q-7 0-11 0-3 0-14 2t-13 7q-1 5-3 16l-2 11v4h-1v1h-1v2h-1v-21q1-21 1-23 1-2 24-3z" fill="#333" stroke="#333"/> <path d="m636 265h3v1h-1v1l1 1h-1q-2 0-2 3t-2 4l-2 1v1q0 1-3 1t-3-2-1-4l-1-2q0-1-1-2h-1t-6-1l-6-1h10q9 0 10 1 1 0 1-1 0-2 1-2 2 0 4 1z" fill="#565351" stroke="#565351"/> <path d="m52 83 1 1q1 1 3 32 2 30 2 36v5l-1 11q-1 10-2 12-1 1-1 8v6h1v20q-1 2-1 3t-2-2l-1-3v-2q-1-3-1-62-2-60 0-62l1-2h1t0-1z" fill="#9c999a" stroke="#9c999a"/> <path d="m280 285v-1h2l6 2q5 0 8 1h2q0 1-2 1-3 0-14 1l-10 1t1-1h1l2-1q2 0 5 0t2-1-2-1h-1v-1z" fill="#bfbbb7" stroke="#bfbbb7"/> <path d="m100 82h3l1 1q0 1-2 1-1 0 8 1h9v1h6q5 1 5 1 0 1 28 1h27l35 1q35 1 39 4 5 3 6 6t2 6q0 3-1 3t0 16q0 16 1 16 0 0 1 1v1q0 1 2 2 1 0 1 1h1v1h2q1 0 1 1t75 1h90q13 0 13 1t7 2q8 1 46 1 39 0 69 0h37q6 0 8-1h3q0 1 4 1h4v1h-1v2h3l3 1h-2l-38 1q-38 1-72 1h-35l13 2q13 0 23 0h10v1h1v1h-2l-6 2h2v1q0 1-2 1-2-1-2 0 0 2-2 2t-2-1-2-1-2 1-4 1q-3 0-4 0-2 0-8 2-5 2-36 2-30 2-38 1-9-1-16-2t-7-3q1-2 2-3l1-1h-60q-59 0-63 1l-4 1h1q2 2 1 2t0 1l1 1h-2l-2 1q-3 1-24 2l-20 1 2-1 3-1h3v-2h-1v-1h1v-3h-3l3-1 2-1h1l-1-1-2-1h-8q-9 0-28 0-18 0-62 0-45 0-66 1-20 1-21-3l-1-3v-5q0-6-2-36-2-31-4-32h-1l1-2q1-2 6-2 6 0 22 1t20 1zm46 66q28 0 66-1h39v1q0 1-67 1l-67-1h29z" fill="#ede9e8" stroke="#ede9e8"/> <path d="m204 238 1-4h3v1h1v1l4 3q3 3 3 4t0 1v1h-1q0-1-5-1h-8q-2 0-2-1h2q2 0 2-5z" fill="#928f8e" stroke="#928f8e"/> <path d="m596 563h2l1 1h8l-7 1-6 1h-8q-7 0-51 4l-44 2v1h-8v-1h-6q-6 0-12-1h-6v-1l39-3q40-3 50-5 11-2 13 0 2 0 19 0 16 0 16 1z" fill="#3d3d3e" stroke="#3d3d3e"/> <path d="m151 252v-1h1v1h5q5 1 6 3t0 3q0 1 1 1h1q0 1-2 1l-2 1q0-1-3-3l-3-3v-1h-4v-2z" fill="#a29e9b" stroke="#a29e9b"/> <path d="m669 697h11q5 1 4 1-2 0 0 1 1 0 1 1v2q-1 0-19 2l-19 1h-1q-2-1-10-1l-8-2h1v-1h-1v-1l18-1q17-1 23-2z" fill="#959494" stroke="#959494"/> <path d="m240 247v-1h4q5 0 20 1h16l6 1q6 0 8 4 2 3 2 4v1q0 1-4 1h-5l-2 2h-1q-1 0-1 1h-2q-2 1-3 0h-2v-1q0-1-1-2-1 0-16-2l-16-2 1-1v-2h1l1 1h13v-1h-1v-1h-5q-5 0-9-1-3-1-4-2z" fill="#3e3d3d" stroke="#3e3d3d"/> <path d="m437 566v-1h1q2 0 1 1-1 2-1 4v2h15l3-1h9q6 1 12 1h6v1h-4q-4 1-23 2l-19 1v-10z" fill="#5b5b5b" stroke="#5b5b5b"/> <path d="m204 261v-1h9q1 1 2 2 0 2 5 2 4 0 4 1h-1l-1 1h2l2 1 1 1h-2v1h-9q-1 1-1-1 1-1-7-2h-7v-1h1q1-1 0-1t0-1q2-1 2-2z" fill="#9d9a99" stroke="#9d9a99"/> <path d="m220 253h9q2 0 2 1v1l-1 5q0 5-3 5h-3q0-1-4-1-5 0-5-2-1-1-2-2h-1t-2-1q-1 0-1-1t-5-2h-4v-1h-1v-1h5q5-1 6-3 0-3 1 0 1 2 9 2z" fill="#bebab9" stroke="#bebab9"/> <path d="m370 746 1-12v38q-1 37-1 68v31t-1-9q-1-10-1-14-2-4-2-18l-1-13h1v-9q0-8 2-28 0-21 2-34z" fill="#6e6e6e" stroke="#6e6e6e"/> <path d="m228 278h6q2 0 2 2t-2 2h-5q-3 0-3-2 0-1 2-2z" fill="#aea9a4" stroke="#aea9a4"/> <path d="m195 255 1-1h3v1h1v1h4q5 1 5 2t1 1q2 1 2 1h-4t-3-1l-3-1h-2q-1 0-4-1-2-1-1-2z" fill="#b6b2af" stroke="#b6b2af"/> <path d="m622 701h7v1h-1l8 2q8 0 10 1h1q0 1-41 4l-41 3-6-2h1v-1h-1v-1h-5v-1l1-1 31-2q30-2 36-3z" fill="#a09fa0" stroke="#a09fa0"/> <path d="m583 267h8v1h3v1h-1v1h-2t-3 0-4 1l-1 2h-1q-2 1-2 2-1 1-6 1h-8l-4-2h6v-1l4-3q4-2 11-3z" fill="#928d89" stroke="#928d89"/> <path d="m365 674v-34q1 0 1 2v2h1v-1h1v-1l2-2v5l1-1 1-2v6q0 6 0 14v20q0 12-1 21l-1 9v-2h-1l-1-1v-1h-2v-1l-1-33z" fill="#5c5c5c" stroke="#5c5c5c"/> <path d="m638 268h1l9 1q9 1 9 2h-1q-2 0-2 1 0 2-2 3l-2 1v1h-13q0-1-3-1h-2l2-1q2-1 2-4t2-3z" fill="#8e8a86" stroke="#8e8a86"/> <path d="m554 108h59v3l1 3v14h-52q-19 0-19-2v-3q-1-1-1-3v-1h-1v-1h1v-8h-1l7-1q6-1 6-1z" fill="#343332" stroke="#343332"/> <path d="m79 247-2-3 11 8q12 9 12 9v1h1l2 2h1q1 0 2 1 0 1 0 1h1l4 3q3 3 3 8t1 11v6h-1v-4l-1-2-1-1v-1q0-2-1-2 0 0-1-4-2-4-3-4t-1-1-2-1q-1-1-1-2 0-2-1-2t-1-1q-1-1-8-7-7-7-9-9l-1-3h-1q-1 0-3-3z" fill="#bdb9b9" stroke="#bdb9b9"/> <path d="m733 330v-7h10v7q-1 7-5 8h-5v-8z" fill="#504f50" stroke="#504f50"/> <path d="m749 886v2t-1 2q-2 0-10 1t-12-1l-3-2-5-1h-4v-1h3l6-2 5 1q6 0 6-1 1-2 3-1t1 1 4 0q3 0 5 0 2-1 2 2z" fill="#4b4b4b" stroke="#4b4b4b"/> <path d="m653 137v1h-7q-8 0-48 0h-39l3-1 4-1h-4q-3 0-6-1l-4-1h9l-3-1q-2-1 0-1h1l4-2h-25v-1h22l21-1h33v-14l-1-3v-3h-71q-13 0-14 1h-1v-1q-1-1-1-1 0 1-2 0-1-1-1-1 0-2-3-2-4-1-4-2v-1h-4l-5-1 13-1q12-1 13-2t7-2q5-1 16-1h10v-1h-1v-1h-70v-1h1v-2h-6v-2l73-1q73-2 76-3t5-3 8-2q5 0 5 1t-1 1q-2 0-2 3t1 2 1 12-1 13q-1-1-1 12-2 13-2 14 0 0 1 1z" fill="#e3dfdf" stroke="#e3dfdf"/> <path d="m57 168 1-11 1 3q1 4 21 3 21-1 66-1 44 0 62 0 19 0 28 0h8l2 1 1 1h-1l-2 1-3 1h3v3h-1v1h1v2h-3l-3 1-2 1h-4q-5 0-6 0-2 0-13 2-11 0-75 2-63 2-72 3-10 1-10 7l-1 6h-1v-6q0-7 1-8 1-2 2-12z" fill="#e1dedd" stroke="#e1dedd"/> <path d="m484 233v-1l16 2q16 0 19 1h3v1h10q9 1 9 2v2h-3l-2 1h-8q-6 1-13 2l-7 1-2 1-3 1h1v1h1q0 1-5 2l-5 1h-2v-1q-1-1-1-3 0-1-4-1l-4-1v1h-1v-1h-2v-1h-1v-1l1-1q1-1 1-4v-3h1v-1h1z" fill="#5c5b59" stroke="#5c5b59"/> <path d="m599 258h11q7 0 8 0v1q0 1-1 3t-15 2h-14v-2h2q1-1 1-2t3-2q2 0 5 0z" fill="#b7b3af" stroke="#b7b3af"/> <path d="m136 851v-44l3 47q3 46 4 47t49-3 70-6q21-2 25-3h4v1h-1v1l-1 1-1 2v3q0 2-1 2t-1 2q-1 1-3 4-1 2-1 3 0 2-1 2t-1 4q0 3-1 4 0 1 2 2 2 0 1 2 0 2 1 1 1 0 3 1 2 0 1 1 0 1 0 1h1l4 1 3 1-5 1q-6 1-58 6l-53 6h-3q-2 1-12 1-9 2-14 2t-8 1l-2 1v-1h-1v-1h-2v-24q-1-25-1-69z" fill="#171717" stroke="#171717"/> <path d="m706 555h1l-1 3q0 3 4 3 3 1 4 0h1v1q-1 0-21 2l-20 1h-5v-2h-3l-3-1h-1v-1h1l1-1 20-2q21-2 22-2 0 0 0-1z" fill="#9b9999" stroke="#9b9999"/> <path d="m548 707h6v1h6q2 0 2 1t-2 1h-1l6 2h-3q-4 0-36 3l-33 2q0-1-8-1l-8-2h-3v-1h4l3-1 31-2q31-2 36-3z" fill="#9f9e9e" stroke="#9f9e9e"/> <path d="m314 268h17v1h1v1l2 2v4l1 2v3h-2q-2 1-3 0-2-1-7 1l-5 2h-2q-2 0-3-2l-1-1q0-1-14-2l-13-1-3-1h-2v-2h4l3-1h1q2 0 4 0h3q-1-1-1-1v-1t-1 0l-1-1q-1-1 5-1 6-2 11-2 6 0 6 0z" fill="#484747" stroke="#484747"/> <path d="m656 271h1l3 1q3 0 3 1t1 1h2t-8 2l-8 1v-1l2-1q2-1 2-3 0-1 2-1z" fill="#b4b0af" stroke="#b4b0af"/> <path d="m348 389h16l1 1q1 2 1 18 0 15 0 61v103q0 57-1 62v40l1 33v1h2v2h-2q-1-1-1 48v48h-1v37q-2 37-10 39-9 2-34 4t-27 3h-6q-4 1-25 3-22 2-70 6t-49 3-4-47l-3-47v-15q0-16-2-190l-2-175 2-13q2-14 2-15 1-1 20-1 19-2 98-5t94-4zm-69 50h-9q-3 1-17 1-14 2-39 2h-24 2l2-1 1-1 33-1q33-1 36-2h8l3-1h27q27 0 5 2-22 0-28 1z" fill="#e9e7e8" stroke="#e9e7e8"/> <path d="m586 566h12l4 2h-1l3 1q2 1 2 1h-2q-1 0-46 3l-46 3h-14v-2h1l-4-1h-4v-1l44-2q44-4 51-4z" fill="#9e9d9c" stroke="#9e9d9c"/> <path d="m266 284t1 1h3q1-1 2 0v1q0 2 1 2t1 1h-1q-1 1-1 1h-7q-7 0-9-1h-3v-1h2l2-1q2-1 2-1h4l1-1q2-1 2-1z" fill="#b6b2af" stroke="#b6b2af"/> <path d="m248 276 1-1h1l9 1q9 0 9 0v2q0 2-2 2-1 0-1 2 0 1 1 2 2 0 2 0v1h-2q-2 1-2 1h-1v-2q-1-2-1-3-2-1-3 2-2 3-1 3h1t-2 1l-2 1v-1q0-1-4-1h-4v-2q0-3-1-3t0-3l1-2h1z" fill="#b3afac" stroke="#b3afac"/> <path d="m702 460 7-1h7l-2 30q-2 30-3 37l-1 6v-2h-1v-12q1-8 1-33l1-25h-9z" fill="#727172" stroke="#727172"/> <path d="m372 501v-5 54q0 55 0 68t0 18v6l-1 2-1 1v-5l-2 2v1h-1v1h-1v-2q0-2-1-2v-6q1-5 1-62v-57l1-1h2v-4q0-4 1-4 2 0 2-5z" fill="#616061" stroke="#616061"/> <path d="m627 145 14 1q-1 0-10 2l-9 2v1h-2q-2 1-8 1h-7l2-1q2-1 1-1t-1-1v-1h-3q-4 0-40-2h-36v-1h42q43-1 57 0z" fill="#ddd9d8" stroke="#ddd9d8"/> <path d="m624 270 1 2q1 2 1 4t3 2 3-1v-1h2q3 0 3 1h-1q-1 1-11 1h-10v-1h1q1-1 0-1t0-2q2-2 2-2l2-1q3-1 4-1z" fill="#ada9a6" stroke="#ada9a6"/> <path d="m437 567v9l19-1q19-1 23-2h16l4 1h-1v2h14l-7 1q-7 1-37 2l-31 1v-2l-1-1v-5q0-5 1-5z" fill="#adacab" stroke="#adacab"/> <path d="m750 691h8v1h-1v1h1v1h1l2 1q2 1 2 1h-1q-2 0-40 3l-37 3v-2q0-1-1-1-2-1 0-1 1 0-4-1h-5v-1l33-2q33-2 42-3z" fill="#939293" stroke="#939293"/> <path d="m181 84h4v-1h1v1h2l-6 2h2v1l1 1h-27q-28 0-28-1 0 0-5-1h-6v-1h4l4-1h3l4-1q4-1 19-2t16 0 5 2q3 1 7 1z" fill="#e6e2e1" stroke="#e6e2e1"/> <path d="m606 266h4l6 1q6 1 6 1h-4q-3 0-5 2l-2 1q0-1-9-1h-9v-1h1v-1h-3v-1h5q5-1 10-1z" fill="#afaba8" stroke="#afaba8"/> <path d="m624 249h1v2q0 3 1 3h1t-5 1l-6 1h-1l-3-1h-4v-1t1 0v-1l3-2q4-1 4-3-1-1 0-1t1 1q0 2 3 2t4-1z" fill="#c7c3c1" stroke="#c7c3c1"/> <path d="m528 108h26t-6 1l-7 1h1v8h-1v1h1v1q0 2 1 3v1h-1t-2 1q-1 0-1-2t-3-2-4 1-1 1l-1 1v-4q0-3-1-6l-1-4v8h-1v-9q1 0 1-1z" fill="#656362" stroke="#656362"/> <path d="m240 254h1l1 3q0 3 1 3t2 1l1 1h1l3 2q4 0 4 1h-1v1h-1l2 2h-2q-3 0-4 0t-3 1l-2 2v-1q-1-1-1 0-2 1-4 2l-3 2v-1q1-1 1-2t-3-2q-2-1-1-1l1-2h-3q-2 0-2 2 0 1-2 1h-1v-1h2l-1-1-2-1h-2l1-1h4q3 0 3-5l1-5 1-1q0-1-1-2-1 0 4 0 5 2 5 2z" fill="#6a6865" stroke="#6a6865"/> <path d="m364 843v-37h1v11l1 13q0 14 2 18 0 4 1 14 1 9 1 9l1 4q1 5 3 5 1 0 2 1v1h6q6 0 6 1t2 1q1 0 1 2 0 1 2 3 3 2 3 3t-1 1-2 7q-1 6 0 7t0 3q-1 1-5 3-5 1-6 2l-2 1h-3v1h-1v1h-1v1h-1v1h-1v1h-3q-2 1-38 4l-37 3-3-1-4-1h-1t0-1q1-1-1-1-2-1-3-1-1 1-1-1 1-2-1-2-2-1-2-2 1-1 1-4 0-4 1-4t1-2q0-1 1-3 2-3 3-4 0-2 1-2t1-2v-3l1-2 1-1v-1h1v-1h2q2-1 27-3t34-4q8-2 10-39z" fill="#131313" stroke="#131313"/> <path d="m280 282v-5h2l3 1 13 1q14 1 14 2-1 1-2 1t-1 1q-1 1-4 2l-4 1v1h-5q-3-1-8-1l-6-2h-2v2t0-4z" fill="#938d88" stroke="#938d88"/> <path d="m366 710h4v2l1 4q1 3 2 4 1 0 2 1h1q0 1 0 1h1l1 1q1 1 0 2l-3 3q-3 3-4 4v2l-1 12q-2 13-2 34-2 20-2 28v9h-1v-59q0-49 1-48z" fill="#353535" stroke="#353535"/> <path d="m252 268h10q8-1 8 0t-1 1q-1 1 1 1 3 2 13 2h10t1 1q0 1 0 1h1-3q-2 0-4 0h-8q-7 0-8-1h-1q-1-1-4-2t-3 1q0 1-9 1l-9 1h-2q-1 0-1-2v-1l2-2q2-1 3-1t4 0z" fill="#9c9894" stroke="#9c9894"/> <path d="m660 258h19l2 2h1v2l2 4v4h-2l-4 1q-5 1-8 2l-4 1h-2q-1 0-1-1t-3-1l-3-1q0-1-9-2l-9-1-1-1v-1h1v-2l-1-1v-1h-5v-1h1v-1h9q9-2 13-2t4 0z" fill="#3e3d3c" stroke="#3e3d3c"/> <path d="m646 138h7v4q1 5 1 7v2h-32v-1l9-2q9-2 10-2l-14-1q-14-1-57 0h-73v-1h20l1-1 2-1h-4v-2h3l17-1q18-1 20-1h42q40 0 48 0z" fill="#e6e2e1" stroke="#e6e2e1"/> <path d="m236 277 8-1h3l-1 2q-1 3 0 3t1 3v2h4q4 0 4 1v1h-2v1h-1q0-1-6-1h-16v-1h1v-1h2q2 0 2-1t-1-1h-1q-1-1-1-2h2q2 0 0-2l-2-1v-1h-3v-1h7zm-1 1q1 0 1 0-1 0-1 0z" fill="#999390" stroke="#999390"/> <path d="m742 372h13-3q-2 0-38 2l-37 2v-3l27-1q26 0 38 0z" fill="#838383" stroke="#838383"/> <path d="m531 245h3l-2 1q-2 1-2 2t2 1q1 0 1 1 0 2 3 2 2 0 2 1h-2l-1 1h-1v2h-11l-3-1h-4v-1h2q2-1 3-1v-1l5-3q4-3 5-4z" fill="#a6a3a0" stroke="#a6a3a0"/> <path d="m154 241v-1h5q3 0 15 2 12 0 12 0 1 0 8 1h6q0 1 2 1h8q5 0 5 1v1h-6q-6 0-19 2l-14 2-2 1h-3v3l1 3v3h1l1 1h1v1h-7v-2q0-1-2-1h-2q-1 0-1-1 1-1 0-3t-6-3h-5v-1h-1v-2q1-2 1-5l2-3z" fill="#4a4949" stroke="#4a4949"/> <path d="m593 240h1l6-1h7l7 1q8 0 9 4t2 4v1h-1q0 1 0 1h-4q-3 0-3-2 0-1-1-1t0 1q0 2-4 3l-3 2h-1q0 1 0 1h-1q-1 0-3-2l-1-1v-1q-1 0-1 0 0-1-3-2l-3-2-2-2h-2l-2-1q-1-1 0-1 2-2 3-2z" fill="#373635" stroke="#373635"/> <path d="m146 148q28 0 66-1h39v1q0 1-67 1l-67-1h29z" fill="#cfcbca" stroke="#cfcbca"/> <path d="m572 252h4q2 0 2-1h1l-1 3q0 3-1 4l-1 1v1h6q6 2 6 2-1 0-1 1v1l2 2h1v1h-7q-7 1-11 3l-4 3v1h-7q-1 0-5 0-3 0-3-2 0-1-5-1-4-1-5-3t-4-2h-5l-2-1-1-1h-1v-3l1-1 1-2v-2h2v-2h1l1-1h2l16 1q15 1 15 0v-1h2l2-1h-1z" fill="#484646" stroke="#484646"/> <path d="m271 273h1v1q0 1-1 2-1 0-1 0v1h-2v-1t-9 0l-9-1v-1h-4l9-1q9 0 9-1 0-2 3-1t4 2z" fill="#5e5b58" stroke="#5e5b58"/> <path d="m242 257-1-3h2l16 2q15 2 16 2 1 1 1 2v1h3q3-1 4-1h1v1q0 1-1 1 0 0-7 2-6 2-11 2h-7l-2-1h-2q0-1-4-1l-3-2h-1l-1-1q-1-1-2-1t-1-3z" fill="#a39f9c" stroke="#a39f9c"/> <path d="m791 368v1l-1 1q-2 0-4 6-2 5-2 17-2 12-2 14t-1 5v4h-1v-6q0-6 0-22v-16h-1q-1 0-13 0h-24q-12 0-38 0l-27 1v3h-5q-6 0-61 3l-55 2h-1q-1-1 0-1t-18 0h-19v-1h1v-1h-15v-1h1v-1h2v-1h-1v-1l142-7q141-7 143-8 1-1 1 3 0 5-1 6z" fill="#b9b7b8" stroke="#b9b7b8"/> <path d="m478 352h-3v1h-1v-2h-1v-1h1v-1h1v-1h1v1l2-1q2 0 4-1 3-1 5-8 1-8 3-9 1 0 2-1 2 0 2-1-1-2 2 0t5 7q3 5 1 10t-4 7q-3 2-5 4t-7 2q-4 0-5-1t-1-3q0-1 0-1 0-1-2-1z" fill="#e3e1e1" stroke="#e3e1e1"/> <path d="m195 254h1l-1 1q-1 1 1 2 3 1 4 1h2l3 1q3 1 3 1h-4v1q0 1-2 2-1 1 0 1t0 1h-8l-7-1h-5v-2h3v-1h1v-1l4-3q4-3 5-3z" fill="#95918e" stroke="#95918e"/> <path d="m762 696h1l2 1q3 1 3 17 0 15-1 18v8l-1 4-2 40q-2 40-3 45v7q-1 3-1 5-1 2-22 4-22 3-24 4-3 1-3 0t-53 4l-54 5h-1q-1 0-113 12l-112 10-1 1h-1q-1-1-2-1-2 0-3-5l-1-4v-31q0-31 1-68v-40q1-1 4-4l3-3 58-4q57-3 57-4l33-2q32-3 36-3h3l41-3q41-3 41-4l19-1q18-2 19-2l37-3q38-3 40-3z" fill="#e3e1e2" stroke="#e3e1e2"/> </g> </svg>